<svg id="svg" xmlns="http://www.w3.org/2000/svg" xmlns:xlink="http://www.w3.org/1999/xlink" width="40" height="30.3017501508751" viewBox="0, 0, 400,300.3017501508751"><g id="svgg"><path id="path0" d="M340.978 0.264 C 249.913 5.101,168.527 47.172,111.735 118.769 C 77.476 161.959,55.395 214.565,47.952 270.730 C 47.653 272.987,47.320 274.817,47.212 274.796 C 47.104 274.775,38.908 264.404,29.000 251.750 C 9.034 226.251,9.951 227.278,7.161 227.278 C 1.667 227.278,-1.912 234.277,1.255 238.830 C 5.363 244.736,48.453 299.136,49.378 299.583 C 50.873 300.307,53.876 300.188,55.631 299.335 C 56.809 298.763,114.372 253.913,115.224 252.903 C 118.755 248.720,115.035 242.504,108.992 242.491 C 105.910 242.484,107.055 241.690,82.928 260.580 C 70.983 269.933,61.184 277.559,61.151 277.526 C 61.119 277.494,61.352 275.463,61.669 273.013 C 73.233 183.524,125.926 103.286,204.323 55.782 C 259.030 22.634,322.488 8.799,388.930 15.537 C 397.787 16.435,399.881 15.333,399.878 9.777 C 399.875 4.488,397.473 2.467,390.248 1.677 C 376.294 0.152,354.733 -0.467,340.978 0.264 " stroke="none" fill="#e4e4e4" fill-rule="evenodd"></path></g></svg>