<?xml version="1.0" standalone="no"?>
<!DOCTYPE svg PUBLIC "-//W3C//DTD SVG 20010904//EN"
 "http://www.w3.org/TR/2001/REC-SVG-20010904/DTD/svg10.dtd">
<svg version="1.0" xmlns="http://www.w3.org/2000/svg"
 width="512.000000pt" height="512.000000pt" viewBox="0 0 512.000000 512.000000"
 preserveAspectRatio="xMidYMid meet">

<g transform="translate(0.000000,512.000000) scale(0.100000,-0.100000)"
fill="#000000" stroke="none">
<path d="M2580 4710 l0 -410 685 0 685 0 0 -390 0 -390 -685 0 -685 0 0 -175
0 -175 680 0 679 0 -5 -47 c-3 -27 -38 -478 -79 -1003 -56 -739 -76 -955 -87
-959 -7 -3 -276 -82 -598 -176 l-585 -171 -3 -402 c-2 -299 1 -402 9 -402 7 0
417 111 912 247 768 211 901 250 907 268 8 18 441 4521 440 4573 l0 22 -1135
0 -1135 0 0 -410z"/>
<path d="M2580 2011 l0 -370 163 55 c89 30 192 63 228 74 l65 20 13 252 c6
139 14 272 18 296 l5 42 -246 0 -246 0 0 -369z"/>
</g>
</svg>
