<svg version="1.1" xmlns="http://www.w3.org/2000/svg" width="300" height="300" viewBox="0 0 300 300"><path d="M89.243 18.679q0.698 -0.001 1.395 -0.003 1.499 -0.003 2.999 -0.001c1.487 0.002 2.974 0.001 4.461 -0.001q3.986 -0.004 7.972 -0.001 3.488 0.002 6.976 0.001l0.469 0 1.886 -0.001c5.886 -0.002 11.773 0 17.659 0.003q7.827 0.004 15.655 0a21796.875 21796.875 0 0 1 19.512 -0.002h0.468q3.484 0.001 6.969 -0.002 3.966 -0.002 7.931 0.002 2.213 0.003 4.427 0c1.107 -0.002 2.215 0 3.322 0.003q0.666 0.001 1.331 -0.001c3.981 -0.011 7.932 0.326 11.85 1.046l0.64 0.116c2.586 0.49 5.118 1.18 7.645 1.911l0.438 0.126c6.657 1.95 13.219 5.301 18.839 9.347 0.377 0.254 0.749 0.46 1.161 0.652v0.375l0.29 0.129c0.643 0.344 1.225 0.761 1.819 1.183l0.369 0.256c0.306 0.217 0.602 0.448 0.896 0.681v0.375l0.938 0.375v0.375h0.375v0.375l0.316 0.141c0.726 0.392 1.393 0.921 1.934 1.547v0.375l0.338 0.153c0.414 0.223 0.684 0.448 1.014 0.781 0.109 0.109 0.219 0.219 0.331 0.332l0.345 0.352 0.358 0.363c0.8 0.815 1.567 1.646 2.302 2.52q0.265 0.307 0.532 0.614C248.438 46.678 248.438 46.678 248.438 47.25h0.375c0.258 0.352 0.258 0.352 0.563 0.856a81.75 81.75 0 0 0 1.711 2.648C252.938 53.523 252.938 53.523 252.938 54l0.375 0.188c0.191 0.298 0.191 0.298 0.394 0.685l0.229 0.436 0.244 0.473 0.252 0.484c0.736 1.425 1.429 2.868 2.097 4.326a116.813 116.813 0 0 0 0.44 0.944c1.219 2.612 1.219 2.612 1.219 3.715l0.375 0.188c0.773 1.797 1.19 3.794 1.688 5.684l0.125 0.474c0.655 2.491 1.205 4.977 1.562 7.529l0.08 0.52c0.78 5.531 0.753 11.075 0.745 16.649a1516.875 1516.875 0 0 0 0.001 3.929c0.003 2.564 0.003 5.128 0.001 7.693q-0.002 3.365 -0.001 6.73l0 0.453 0.001 1.822c0.002 5.681 0 11.362 -0.003 17.043q-0.004 7.552 0 15.104a20315.063 20315.063 0 0 1 0.002 18.838v0.452q-0.001 3.362 0.002 6.724 0.003 3.826 -0.002 7.651c-0.002 1.299 -0.002 2.598 0 3.897q0.002 1.789 -0.002 3.577a274.313 274.313 0 0 0 0.001 1.284c0.011 3.718 -0.342 7.357 -0.93 11.027 -0.075 0.506 -0.13 1.008 -0.174 1.517 -0.104 1.119 -0.279 2.227 -0.646 3.292 -0.288 0.888 -0.463 1.796 -0.65 2.709 -0.206 0.968 -0.497 1.858 -0.86 2.776a163.875 163.875 0 0 0 -0.598 1.652l-0.155 0.426c-0.206 0.579 -0.372 1.052 -0.372 1.672h-0.375l-0.188 1.5h-0.375l-0.103 0.364c-0.284 0.977 -0.606 1.896 -1.022 2.824l-0.188 0.563h-0.375l-0.141 0.457c-0.793 2.26 -0.793 2.26 -1.359 2.543l-0.166 0.5c-0.228 0.681 -0.537 1.204 -0.924 1.808 -0.443 0.701 -0.875 1.401 -1.266 2.133 -0.425 0.782 -0.923 1.5 -1.442 2.223a33.188 33.188 0 0 0 -0.685 1.005c-0.415 0.613 -0.859 1.197 -1.319 1.776l-0.268 0.338A505.125 505.125 0 0 1 247.313 235.688l-0.309 0.39c-2.114 2.658 -2.114 2.658 -3.301 3.79 -0.338 0.33 -0.642 0.676 -0.949 1.035 -1.27 1.473 -2.683 3.007 -4.254 4.16h-0.375l-0.188 0.563a21.938 21.938 0 0 1 -1.195 0.961l-0.336 0.259c-0.486 0.369 -0.886 0.649 -1.469 0.843v0.375c-1.015 0.75 -1.015 0.75 -1.5 0.75v0.375c-0.356 0.283 -0.356 0.283 -0.82 0.586l-0.461 0.306C231.75 250.313 231.75 250.313 231.375 250.313v0.375l-0.491 0.234c-0.627 0.324 -1.196 0.686 -1.783 1.078 -2.414 1.585 -4.994 2.932 -7.606 4.16l-0.635 0.301C220.313 256.688 220.313 256.688 219.75 256.688l-0.188 0.375c-0.421 0.206 -0.855 0.362 -1.294 0.528q-0.566 0.216 -1.129 0.44c-1.466 0.579 -2.942 1.057 -4.456 1.493l-1.291 0.377 -0.619 0.179a141.563 141.563 0 0 0 -1.618 0.485c-0.606 0.182 -1.205 0.344 -1.827 0.46l-0.436 0.083c-0.526 0.093 -1.052 0.181 -1.579 0.268l-0.468 0.079c-0.57 0.096 -1.141 0.19 -1.711 0.284l-0.567 0.096c-3.451 0.564 -6.861 0.721 -10.354 0.719l-1.383 0.004q-1.493 0.004 -2.987 0.005c-1.48 0.001 -2.961 0.004 -4.441 0.007q-3.737 0.008 -7.474 0.012a11249.438 11249.438 0 0 0 -9.734 0.014q-8.767 0.015 -17.533 0.025a30359.813 30359.813 0 0 0 -16.576 0.025l-0.5 0.001 -2.492 0.004 -0.497 0.001a45615 45615 0 0 1 -13.492 0.021l-1.862 0.003q-3.239 0.005 -6.479 0.01 -4.171 0.007 -8.343 0.011 -2.206 0.002 -4.412 0.007 -1.645 0.003 -3.291 0.004 -0.667 0.001 -1.334 0.002 -0.904 0.002 -1.808 0.002l-0.527 0.002c-0.91 -0.001 -1.772 -0.064 -2.673 -0.211 -0.324 -0.007 -0.649 -0.008 -0.973 0 -0.599 0.015 -1.074 -0.043 -1.652 -0.188q-0.45 -0.07 -0.902 -0.13c-2.527 -0.352 -5.011 -0.817 -7.5 -1.37l-0.432 -0.095c-1.771 -0.392 -3.503 -0.843 -5.228 -1.405l-0.488 -0.154c-0.864 -0.273 -1.679 -0.613 -2.503 -0.99 -0.408 -0.187 -0.408 -0.187 -0.947 -0.357 -0.776 -0.259 -1.507 -0.598 -2.25 -0.938l-0.494 -0.224q-0.521 -0.236 -1.041 -0.475a65.625 65.625 0 0 0 -1.024 -0.454c-1.129 -0.494 -2.191 -1.063 -3.254 -1.683 -0.573 -0.334 -1.146 -0.652 -1.745 -0.938 -0.659 -0.322 -1.252 -0.71 -1.856 -1.125a42.375 42.375 0 0 0 -1.233 -0.797c-1.814 -1.136 -3.473 -2.382 -5.114 -3.754 -0.593 -0.49 -1.198 -0.964 -1.805 -1.437A1488.563 1488.563 0 0 1 42.75 245.063l-0.521 -0.406C41.813 244.313 41.813 244.313 41.473 243.879c-0.455 -0.559 -0.957 -0.992 -1.503 -1.459 -0.666 -0.584 -1.328 -1.187 -1.907 -1.857v-0.375l-0.563 -0.188a19.5 19.5 0 0 1 -0.82 -0.984c-0.427 -0.544 -0.847 -1.059 -1.337 -1.548 -0.881 -0.883 -1.597 -1.908 -2.342 -2.905l-0.285 -0.379C26.625 226.04 26.625 226.04 26.625 224.25l-0.375 -0.188c-0.186 -0.339 -0.186 -0.339 -0.379 -0.779l-0.217 -0.488 -0.224 -0.514 -0.22 -0.497q-0.219 -0.494 -0.436 -0.99a249.375 249.375 0 0 0 -0.606 -1.367l-0.185 -0.417q-0.226 -0.508 -0.454 -1.014c-0.377 -0.922 -0.693 -1.86 -1.006 -2.804l-0.199 -0.598c-0.604 -1.835 -1.146 -3.685 -1.612 -5.56 -0.157 -0.623 -0.339 -1.239 -0.515 -1.856 -0.151 -0.62 -0.236 -1.233 -0.322 -1.865a170.25 170.25 0 0 0 -0.163 -0.962c-0.211 -1.239 -0.401 -2.482 -0.587 -3.725l-0.084 -0.549c-0.69 -4.751 -0.559 -9.556 -0.55 -14.344 0.002 -1.323 0.001 -2.647 0 -3.97 -0.002 -2.591 -0.001 -5.182 0.001 -7.774a6880.688 6880.688 0 0 0 0.002 -9.095c-0.001 -5.735 0.002 -11.469 0.006 -17.204a17375.625 17375.625 0 0 0 0.003 -16.244v-0.49l-0.001 -2.442v-0.487a23261.625 23261.625 0 0 1 0.003 -15.073q0.001 -3.174 0.001 -6.348 -0.001 -4.089 0.003 -8.178 0.002 -2.159 0.001 -4.318c-0.001 -1.077 0.001 -2.155 0.003 -3.232q0.001 -0.651 0 -1.301c-0.004 -2.203 0.047 -4.361 0.336 -6.547 0.089 -0.714 0.142 -1.417 0.183 -2.136 0.056 -0.866 0.171 -1.67 0.383 -2.511 0.087 -0.385 0.126 -0.752 0.157 -1.146 0.093 -0.985 0.354 -1.926 0.61 -2.879 0.167 -0.63 0.257 -1.14 0.257 -1.797h0.375l0.07 -0.668c0.078 -0.741 0.279 -1.433 0.492 -2.145l0.138 -0.473c1.154 -3.933 1.154 -3.933 1.888 -5.579 0.355 -0.811 0.649 -1.644 0.952 -2.476C24.563 60.75 24.563 60.75 24.938 60.563c0.124 -0.365 0.124 -0.365 0.223 -0.808 0.294 -1.061 0.806 -1.923 1.385 -2.854 0.299 -0.428 0.299 -0.428 0.267 -0.838h0.375l0.123 -0.452c0.33 -0.881 0.794 -1.642 1.283 -2.443l0.304 -0.501c1.221 -1.999 2.463 -3.968 3.973 -5.765 0.336 -0.407 0.336 -0.407 0.617 -0.923L33.75 45.563h0.375l0.125 -0.3c0.34 -0.612 0.789 -1.118 1.246 -1.645l0.537 -0.625 0.266 -0.307a27 27 0 0 0 0.526 -0.637c0.217 -0.272 0.445 -0.535 0.675 -0.797h0.375l0.141 -0.316c0.532 -0.984 1.286 -1.66 2.128 -2.375 0.358 -0.3 0.358 -0.3 0.661 -0.63C41.063 37.688 41.063 37.688 41.438 37.688v-0.375c0.308 -0.317 0.308 -0.317 0.715 -0.668l0.402 -0.352C42.938 36 42.938 36 43.5 35.813v-0.375a46.688 46.688 0 0 1 1.125 -0.75 64.125 64.125 0 0 0 0.563 -0.563c6.673 -5.492 14.516 -9.484 22.688 -12.188l0.562 -0.188c2.385 -0.782 4.808 -1.337 7.266 -1.828l0.399 -0.081c4.342 -0.877 8.719 -1.176 13.141 -1.162m-2.307 18.905c-0.195 0.007 -0.389 0.015 -0.59 0.022l-0.543 0.023 -0.48 0.02c-0.398 0.016 -0.398 0.016 -0.761 0.226 -0.379 0.021 -0.758 0.035 -1.137 0.047 -2.821 0.145 -5.629 0.864 -8.355 1.57l-0.426 0.11c-0.856 0.231 -1.644 0.539 -2.456 0.898a87.938 87.938 0 0 1 -1.266 0.445A33.375 33.375 0 0 0 67.5 42.375l-0.332 0.16C65.236 43.471 63.361 44.493 61.5 45.563v0.375l-0.298 0.041c-0.643 0.209 -1.143 0.594 -1.682 0.99l-0.348 0.252c-0.926 0.676 -1.816 1.389 -2.695 2.127C56.063 49.688 56.063 49.688 55.5 50.063v0.375c-0.109 0.05 -0.217 0.099 -0.33 0.15 -1.118 0.598 -1.991 1.58 -2.791 2.547 -0.451 0.537 -0.956 1.022 -1.47 1.498C48.621 56.813 46.846 59.582 45.188 62.25l-0.293 0.468C44.167 63.902 43.546 65.127 42.938 66.375q-0.204 0.411 -0.41 0.82l-0.177 0.357a43.875 43.875 0 0 1 -0.456 0.874c-0.28 0.596 -0.481 1.19 -0.681 1.816 -0.145 0.429 -0.313 0.838 -0.491 1.255 -1.447 3.591 -2.278 7.472 -2.801 11.297l-0.066 0.468c-0.421 3.368 -0.384 6.796 -0.38 10.185l-0.001 1.278q-0.001 1.738 0 3.476 0 1.688 -0.001 3.375 -0.001 3.66 0 7.32 0.001 3.203 0 6.406v0.43l0 1.731q-0.001 8.104 0.001 16.208 0.001 7.187 0 14.374a55084.125 55084.125 0 0 0 -0.001 17.907v0.43q0 3.2 0 6.399 -0.001 3.641 0.001 7.282 0.001 1.855 0 3.711 -0.001 1.702 0.001 3.404 0 0.612 0 1.224c-0.004 3.592 0.037 7.178 0.564 10.736l0.091 0.668c0.308 2.165 0.811 4.266 1.42 6.364l0.148 0.513c0.7 2.459 0.7 2.459 1.73 4.791 0.238 0.49 0.411 0.992 0.594 1.505 0.569 1.517 1.37 2.893 2.176 4.295 0.399 0.698 0.787 1.401 1.176 2.104h0.375l0.065 0.328c0.465 1.595 1.947 3.061 2.936 4.359l0.387 0.519 0.352 0.466 0.31 0.413L50.063 225.75h0.375v0.375h0.375l0.129 0.305c0.332 0.6 0.722 1.062 1.184 1.57h0.375l0.152 0.339c0.226 0.417 0.445 0.67 0.789 0.993 0.17 0.159 0.17 0.159 0.343 0.323l0.368 0.338 0.382 0.353c1.145 1.044 2.337 1.995 3.591 2.905l0.343 0.249A153 153 0 0 0 60.75 235.125l0.604 0.429c0.499 0.37 0.499 0.37 1.083 0.321v0.375c11.356 6.569 22.923 7.562 35.758 7.549 1.125 -0.001 2.25 0 3.375 0.001q3.658 0.003 7.316 0.001 3.202 -0.002 6.403 -0.001h0.431l1.733 0c5.406 0.001 10.811 0 16.217 -0.002q7.184 -0.003 14.368 0a27567.938 27567.938 0 0 0 17.92 0.002h0.43q3.197 -0.001 6.395 0.001 3.64 0.002 7.281 -0.001 1.853 -0.002 3.707 0c10.954 0.01 22.645 -0.182 32.301 -6.13 0.455 -0.274 0.911 -0.503 1.391 -0.728 1.228 -0.598 2.335 -1.389 3.459 -2.159 0.573 -0.388 1.158 -0.758 1.743 -1.129L222.938 233.438v-0.375l0.39 -0.121c0.713 -0.33 1.229 -0.789 1.814 -1.308 0.115 -0.1 0.229 -0.201 0.348 -0.304q0.345 -0.303 0.689 -0.607a86.25 86.25 0 0 1 0.869 -0.753l0.461 -0.398 0.403 -0.347c0.32 -0.264 0.32 -0.264 0.277 -0.661l0.31 -0.119c0.604 -0.352 1.024 -0.841 1.483 -1.358l0.274 -0.301c0.906 -0.87 0.906 -0.87 1.308 -1.972h0.375l0.188 -0.75h0.375v-0.375h0.375c0.555 -0.681 0.555 -0.681 0.75 -1.5h0.375c0.23 -0.278 0.23 -0.278 0.447 -0.643 0.083 -0.134 0.167 -0.267 0.253 -0.405l0.262 -0.428 0.266 -0.424c0.476 -0.689 0.476 -0.689 0.648 -1.474l0.375 -0.188c0.894 -1.284 1.58 -2.715 2.25 -4.125l0.196 -0.412c1.036 -2.195 1.914 -4.391 2.617 -6.713l0.144 -0.466c0.907 -2.951 1.687 -5.98 1.891 -9.071 0.028 -0.4 0.028 -0.4 0.133 -1.056 0.089 -0.712 0.088 -1.396 0.07 -2.112 0.009 -0.486 0.049 -0.937 0.105 -1.418 0.164 -1.785 0.12 -3.58 0.118 -5.371l0.001 -1.268q0.001 -1.738 0 -3.476 0 -1.683 0.001 -3.366 0.001 -3.655 0 -7.309 -0.001 -3.201 0 -6.401v-0.429l0 -1.726q0.001 -8.093 -0.001 -16.186 -0.001 -7.179 0 -14.358a54857.25 54857.25 0 0 0 0.001 -17.871v-0.429q0 -3.195 0 -6.39 0.001 -3.638 -0.001 -7.276 -0.001 -1.854 0 -3.709 0.001 -1.702 -0.001 -3.403 0 -0.612 0 -1.223c0.002 -2.05 -0.022 -4.096 -0.109 -6.145l-0.022 -0.532c-0.068 -1.456 -0.226 -2.886 -0.444 -4.328l-0.096 -0.684c-0.173 -1.199 -0.376 -2.381 -0.665 -3.558l-0.091 -0.369c-0.792 -3.114 -1.68 -6.298 -3.097 -9.193l-0.327 -0.669c-0.384 -0.781 -0.778 -1.556 -1.173 -2.331l-0.191 -0.377c-0.723 -1.425 -1.477 -2.749 -2.461 -4.017 -0.338 -0.466 -0.612 -0.948 -0.892 -1.45 -0.361 -0.599 -0.8 -1.135 -1.238 -1.679l-0.269 -0.338a125.063 125.063 0 0 0 -0.521 -0.649 41.063 41.063 0 0 1 -0.658 -0.852L231.188 55.5h-0.375l-0.129 -0.305c-0.603 -1.091 -1.558 -2.133 -2.683 -2.695l-0.159 -0.338c-1.855 -3.54 -7.961 -6.692 -11.466 -8.475l-0.345 -0.176c-2.249 -1.147 -4.495 -2.223 -6.886 -3.046l-0.547 -0.195c-1.003 -0.348 -1.981 -0.612 -3.026 -0.801 -0.444 -0.094 -0.854 -0.222 -1.282 -0.373 -0.936 -0.327 -1.882 -0.514 -2.856 -0.694l-0.517 -0.101c-0.864 -0.162 -1.66 -0.255 -2.541 -0.239a53.063 53.063 0 0 1 -1.125 -0.188c-0.811 -0.081 -1.624 -0.131 -2.438 -0.188l-0.68 -0.049c-2.248 -0.15 -4.488 -0.165 -6.74 -0.162l-1.263 -0.001q-1.724 -0.001 -3.448 0 -1.672 0 -3.344 -0.001 -3.628 -0.001 -7.257 0 -3.177 0.001 -6.353 0h-0.427l-1.715 0q-8.036 -0.001 -16.072 0.001 -7.127 0.001 -14.253 0a54119.063 54119.063 0 0 0 -17.751 -0.001h-0.426q-3.172 0 -6.344 0 -3.611 -0.001 -7.223 0.001 -1.84 0.001 -3.68 0 -1.689 -0.001 -3.378 0.001 -0.607 0 -1.213 0c-2.106 -0.002 -4.207 0.026 -6.311 0.108" fill="#FFFFFF"/><path d="m150.563 75.563 0.597 0.098C157.122 76.653 162.916 78.394 168.375 81l0.379 0.181A84.563 84.563 0 0 1 171.375 82.5l0.395 0.206c4.3 2.264 8.276 5.087 11.926 8.289 0.552 0.493 0.552 0.493 1.179 0.88v0.375l0.334 0.149c0.436 0.237 0.723 0.487 1.072 0.838l0.364 0.365 0.375 0.382 0.372 0.373c0.551 0.556 1.085 1.115 1.579 1.722 0.354 0.49 0.354 0.49 0.778 0.671v0.375h0.375a25.125 25.125 0 0 1 0.534 0.801c0.428 0.644 0.954 1.213 1.461 1.796 0.63 0.739 0.63 0.739 0.63 1.153h0.375l0.188 0.75h0.375l0.188 0.75h0.375c0.291 0.405 0.291 0.405 0.621 0.949 0.373 0.606 0.744 1.201 1.172 1.769 0.5 0.686 0.891 1.422 1.29 2.17 0.393 0.738 0.802 1.466 1.211 2.196C198.75 109.875 198.75 109.875 198.75 110.25l0.375 0.188c0.201 0.327 0.201 0.327 0.398 0.727l0.201 0.397C199.875 111.938 199.875 111.938 199.875 112.5l0.375 0.188v0.563l0.375 0.188a15.938 15.938 0 0 1 0.434 1.052c0.082 0.215 0.163 0.43 0.247 0.652l0.256 0.687 0.504 1.333 0.225 0.6A73.688 73.688 0 0 0 202.875 119.25c0.612 1.534 1.031 3.096 1.413 4.699 0.13 0.541 0.267 1.079 0.404 1.618 0.332 1.311 0.559 2.636 0.789 3.968 0.112 0.641 0.235 1.273 0.395 1.903 0.166 0.861 0.237 1.715 0.281 2.59l0.041 0.754 0.022 0.44c0.023 0.405 0.051 0.809 0.08 1.214 0.138 1.944 0.141 3.866 0.082 5.813a291.375 291.375 0 0 0 -0.039 1.464c-0.164 6.172 -0.164 6.172 -0.655 6.662 -0.081 0.373 -0.152 0.749 -0.218 1.125l-0.132 0.721 -0.07 0.385c-0.744 4.058 -1.744 8.086 -3.322 11.908a27 27 0 0 0 -0.385 1.019c-0.691 1.92 -1.649 3.678 -2.623 5.467l-0.332 0.614a286.688 286.688 0 0 1 -1.104 2.011l-0.31 0.563 -0.279 0.504c-0.244 0.444 -0.244 0.444 -0.412 0.996l-0.375 0.188 -0.188 0.563h-0.375l-0.118 0.369c-0.359 0.795 -0.857 1.46 -1.37 2.162l-0.328 0.451c-0.829 1.129 -1.708 2.202 -2.627 3.259a14.625 14.625 0 0 0 -0.971 1.27c-0.404 0.558 -0.798 0.878 -1.336 1.301 -0.336 0.365 -0.657 0.741 -0.98 1.117A19.688 19.688 0 0 1 186.375 187.875h-0.375l-0.188 0.563c-0.254 0.263 -0.254 0.263 -0.598 0.551l-0.41 0.347L184.313 189.75q-0.299 0.259 -0.598 0.52c-1.279 1.112 -2.581 2.178 -3.932 3.201a27.375 27.375 0 0 0 -0.989 0.785c-0.464 0.356 -0.941 0.643 -1.452 0.926 -0.567 0.321 -1.109 0.681 -1.654 1.037 -2.157 1.411 -2.157 1.411 -3.164 1.805 -0.431 0.126 -0.431 0.126 -0.586 0.539 -0.434 0.137 -0.871 0.263 -1.313 0.375v0.375l-0.551 0.07L169.5 199.5l-0.188 0.375c-0.361 0.194 -0.361 0.194 -0.836 0.401l-0.533 0.232 -0.576 0.246 -0.586 0.252c-2.74 1.168 -5.528 2.171 -8.391 2.994 -0.167 0.049 -0.334 0.098 -0.506 0.148 -1.12 0.322 -2.239 0.576 -3.384 0.789q-0.499 0.097 -0.998 0.194 -0.503 0.097 -1.006 0.193l-0.51 0.099c-0.91 0.174 -1.818 0.324 -2.736 0.452l-0.467 0.1c-0.606 0.113 -1.204 0.146 -1.819 0.182 -0.925 0.051 -0.925 0.051 -1.847 0.141 -1.542 0.188 -3.086 0.169 -4.638 0.165 -0.491 -0.001 -0.983 0 -1.474 0.001q-0.471 0 -0.941 -0.001l-0.443 0.001c-0.659 -0.003 -1.238 -0.049 -1.873 -0.214a18.375 18.375 0 0 0 -0.926 0c-0.66 0.007 -1.244 -0.022 -1.887 -0.188 -0.686 -0.144 -1.374 -0.261 -2.067 -0.371 -2.755 -0.449 -5.448 -0.985 -8.137 -1.743 -0.688 -0.193 -1.379 -0.375 -2.07 -0.557 -0.649 -0.192 -1.264 -0.449 -1.888 -0.709 -0.466 -0.183 -0.931 -0.326 -1.412 -0.463 -0.773 -0.223 -1.488 -0.509 -2.217 -0.848 -0.378 -0.175 -0.76 -0.332 -1.146 -0.488 -0.563 -0.258 -0.563 -0.258 -0.75 -0.633a45.188 45.188 0 0 0 -1.125 -0.375c-0.491 -0.21 -0.972 -0.439 -1.453 -0.668l-0.382 -0.18A66.188 66.188 0 0 1 108.938 198.375v-0.375l-1.313 -0.375v-0.375l-0.473 -0.133c-0.77 -0.286 -1.398 -0.671 -2.082 -1.121l-0.413 -0.27c-2.454 -1.628 -4.83 -3.388 -6.97 -5.413a107.625 107.625 0 0 0 -0.832 -0.738l-0.351 -0.31c-0.346 -0.298 -0.346 -0.298 -0.88 -0.639v-0.375l-0.316 -0.129c-1.058 -0.601 -1.833 -1.691 -2.631 -2.59a25.875 25.875 0 0 0 -0.888 -0.926c-0.51 -0.514 -0.984 -1.052 -1.449 -1.606l-0.269 -0.319c-2.019 -2.414 -3.816 -4.958 -5.485 -7.626l-0.384 -0.606 -0.365 -0.582 -0.329 -0.523c-0.232 -0.421 -0.332 -0.759 -0.446 -1.219l-0.375 -0.188a30.75 30.75 0 0 1 -0.727 -1.406l-0.204 -0.415C81.294 169.17 80.843 168.222 80.438 167.25l-0.211 -0.505C79.688 165.429 79.688 165.429 79.688 165l-0.375 -0.188c-0.144 -0.366 -0.269 -0.739 -0.386 -1.114l-0.219 -0.696 -0.227 -0.734q-0.221 -0.71 -0.444 -1.419l-0.214 -0.681c-0.158 -0.488 -0.327 -0.965 -0.513 -1.442 -0.249 -0.673 -0.411 -1.322 -0.551 -2.025 -0.158 -0.805 -0.158 -0.805 -0.346 -1.604 -0.242 -1.004 -0.386 -2.031 -0.556 -3.048l-0.064 -0.382c-0.319 -1.913 -0.591 -3.824 -0.754 -5.757a32.25 32.25 0 0 0 -0.086 -0.822c-0.138 -1.204 -0.152 -2.381 -0.123 -3.592l0.012 -0.596q0.013 -0.62 0.028 -1.24c0.015 -0.628 0.027 -1.256 0.039 -1.885l0.026 -1.212 0.011 -0.562c0.04 -1.644 0.181 -3.243 0.5 -4.858 0.175 -0.892 0.338 -1.783 0.478 -2.681 0.569 -3.526 1.636 -6.958 2.867 -10.304 0.204 -0.568 0.392 -1.14 0.579 -1.713 0.552 -1.626 0.552 -1.626 1.068 -1.883 0.069 -0.311 0.13 -0.624 0.188 -0.938a13.313 13.313 0 0 1 0.361 -0.818l0.219 -0.458 0.229 -0.471 0.222 -0.464A176.25 176.25 0 0 1 83.063 108.563h0.375l0.122 -0.456c0.327 -0.866 0.794 -1.593 1.296 -2.368l0.306 -0.477C86.483 103.209 87.856 101.238 89.438 99.375l0.257 -0.305C94.231 93.683 94.231 93.683 96.75 91.688l0.41 -0.422C97.5 90.938 97.5 90.938 97.875 90.938v-0.375h0.375v-0.375c0.366 -0.299 0.366 -0.299 0.879 -0.656a52.313 52.313 0 0 0 2.285 -1.711c1.075 -0.839 2.195 -1.608 3.328 -2.367l0.488 -0.329c1.14 -0.756 2.313 -1.42 3.52 -2.062l0.652 -0.366C116.001 79.054 123.268 76.775 130.688 75.563l0.549 -0.094c6.19 -1.015 13.146 -0.962 19.326 0.094m-15.188 18.563q-0.451 0.041 -0.902 0.07c-1.648 0.139 -3.31 0.449 -4.91 0.867l-0.506 0.121c-1.166 0.283 -2.301 0.601 -3.431 1.004l-0.457 0.156C122.537 97.264 120.04 98.482 117.563 99.75v0.375l-0.327 0.069c-1.426 0.4 -2.859 1.435 -3.986 2.369v0.375l-0.539 0.152c-0.633 0.176 -0.633 0.176 -0.961 0.785a18.563 18.563 0 0 1 -0.938 0.563l-0.563 0.375v0.375l-0.314 0.135c-0.543 0.299 -0.961 0.669 -1.421 1.084l-0.507 0.451c-0.427 0.346 -0.427 0.346 -0.384 0.768l-0.337 0.146c-0.452 0.251 -0.693 0.501 -1.022 0.897 -0.612 0.726 -1.244 1.43 -1.884 2.13 -0.302 0.369 -0.49 0.712 -0.694 1.14l-0.75 0.75a30.563 30.563 0 0 0 -0.609 0.762l-0.296 0.382c-0.269 0.367 -0.269 0.367 -0.22 0.919h-0.375l-0.07 0.457L101.25 115.688l-0.375 0.188c-2.741 3.334 -4.338 8.28 -5.461 12.387l-0.15 0.535c-0.277 1.009 -0.465 1.976 -0.577 3.016l-0.176 0.656c-0.824 3.205 -1.898 9.822 -0.387 12.844v1.313c0.108 0.875 0.267 1.729 0.457 2.59a95.625 95.625 0 0 1 0.569 2.776c0.281 1.268 0.708 2.496 1.118 3.727l0.17 0.518c1.007 3.028 2.438 6.01 4.072 8.752l0.21 0.355c0.165 0.268 0.345 0.526 0.528 0.781h0.375l0.082 0.352c0.093 0.405 0.093 0.405 0.293 0.773h0.375l0.141 0.401c0.265 0.606 0.595 1.092 0.984 1.627l0.398 0.554L104.25 170.25h0.375l0.141 0.42c0.257 0.566 0.533 0.868 0.984 1.291 0.448 0.423 0.78 0.772 1.125 1.289h0.375l0.145 0.336c0.254 0.456 0.51 0.702 0.91 1.035l0.401 0.338L109.125 175.313q0.595 0.534 1.188 1.072c0.296 0.279 0.296 0.279 0.687 0.241l0.188 0.563c0.421 0.357 0.421 0.357 0.926 0.692l0.509 0.354c0.408 0.3 0.408 0.3 0.815 0.267v0.375c9.246 7.043 21.944 9.715 33.335 8.213 8.748 -1.238 16.687 -4.679 23.559 -10.217l0.369 -0.297c0.736 -0.602 1.417 -1.237 2.079 -1.921C173.063 174.375 173.063 174.375 173.519 174.035L173.813 173.813v-0.375h0.375c0.307 -0.296 0.307 -0.296 0.621 -0.68l0.35 -0.413L175.5 171.938l0.294 -0.337c0.491 -0.508 0.491 -0.508 0.643 -1.163l0.34 -0.144c0.459 -0.258 0.659 -0.494 0.963 -0.92l0.302 -0.419 0.316 -0.45 0.33 -0.467c2.9 -4.128 5.221 -8.629 6.62 -13.486 0.123 -0.41 0.264 -0.809 0.409 -1.211 0.367 -1.092 0.563 -2.22 0.772 -3.349 0.066 -0.338 0.142 -0.674 0.218 -1.009 1.236 -5.671 1.335 -12.529 -0.335 -18.106 -0.101 -0.509 -0.185 -1.018 -0.269 -1.529 -0.504 -2.547 -1.493 -5.106 -2.543 -7.471l-0.214 -0.497c-0.661 -1.502 -1.431 -2.943 -2.224 -4.378l-0.267 -0.484c-0.619 -1.072 -1.323 -2.086 -2.03 -3.102l-0.302 -0.439 -0.287 -0.407 -0.258 -0.368L177.75 111.938h-0.375l-0.375 -0.938h-0.375l-0.149 -0.323c-0.612 -1.154 -1.533 -2.16 -2.476 -3.052l-0.398 -0.433c-0.342 -0.379 -0.342 -0.379 -0.914 -0.317l-0.375 -0.938h-0.563l-0.188 -0.563h-0.375l-0.188 -0.563 -0.563 -0.188 -0.75 -0.75h-0.375l-0.188 -0.563 -0.422 -0.164c-0.529 -0.216 -0.763 -0.46 -1.146 -0.869 -0.704 -0.64 -1.562 -1.095 -2.369 -1.591l-0.355 -0.239c-1.11 -0.744 -2.329 -1.269 -3.539 -1.827 -0.647 -0.299 -1.277 -0.622 -1.906 -0.957 -1.968 -0.993 -4.135 -1.605 -6.274 -2.105 -0.463 -0.115 -0.904 -0.257 -1.354 -0.414 -1.401 -0.481 -2.812 -0.674 -4.283 -0.792 -0.6 -0.051 -1.192 -0.138 -1.787 -0.228 -1.12 -0.163 -2.205 -0.215 -3.336 -0.212l-0.517 -0.001q-0.537 0 -1.073 0.001c-0.547 0.001 -1.093 0 -1.64 -0.001q-0.524 0 -1.047 0.001l-0.493 -0.001c-0.762 0.003 -1.461 0.031 -2.206 0.214" fill="#FFFFFF"/><path d="M220.817 57.586c2.29 1.554 3.692 3.811 4.297 6.498 0.193 1.577 -0.069 3.167 -0.301 4.729h-0.375l-0.063 0.412c-0.357 1.509 -1.433 2.706 -2.562 3.713l-0.527 0.504c-0.774 0.561 -1.571 0.88 -2.473 1.183l-0.601 0.205c-0.861 0.206 -1.657 0.234 -2.539 0.229l-0.504 -0.003c-2.02 -0.037 -3.732 -0.478 -5.356 -1.743v-0.375l-0.328 -0.141c-1.649 -0.916 -2.629 -3.07 -3.152 -4.805 -0.619 -2.671 -0.126 -5.239 1.277 -7.57 2.991 -4.382 8.662 -5.484 13.207 -2.836" fill="#FFFFFF"/><path d="" fill="#FFFFFF"/><path d="" fill="#FFFFFF"/><path d="" fill="#FFFFFF"/><path d="" fill="#FFFFFF"/><path d="" fill="#FFFFFF"/><path d="" fill="#FFFFFF"/></svg>